<svg width="37" height="39" viewBox="0 0 37 39" fill="none" xmlns="http://www.w3.org/2000/svg">
<path d="M16.4942 0.211233C14.43 0.422563 12.8721 0.864435 10.769 1.82503C8.62685 2.82404 7.59475 3.49646 5.92001 5.0334C4.16738 6.64719 3.01843 8.24178 1.94738 10.4703C0.837377 12.795 0.42843 14.1974 0.214219 16.5029C-0.292097 22.0167 1.57738 27.127 5.53054 31.0462C7.8479 33.3132 10.4963 34.8502 13.7484 35.7723C15.0921 36.1566 15.6958 36.2142 18.5974 36.195C21.3237 36.1758 22.1221 36.1181 23.1737 35.7915L24.4395 35.4073L28.0226 37.2132C31.7032 39.0575 31.9953 39.1344 32.7742 38.462C33.2416 38.0585 33.2026 37.4438 32.4626 33.9088L31.82 30.8349L32.8521 29.5861C36.3769 25.3211 37.7595 18.9236 36.299 13.5442C35.9095 12.1226 34.5269 9.16394 33.6895 7.97281C29.9116 2.55508 23.1542 -0.499604 16.4942 0.211233ZM20.8369 3.09301C22.6869 3.38118 24.829 4.13045 26.3869 5.0334C28.159 6.05163 30.8658 8.72207 31.8979 10.4703C35.3253 16.2531 34.5658 23.5344 29.9895 28.5103C29.3469 29.2019 28.8211 29.9511 28.8211 30.1433C28.8211 30.3354 28.9963 31.3536 29.2105 32.3718C29.4247 33.3901 29.6 34.3506 29.6 34.5043C29.6 34.6965 28.8211 34.3891 27.2242 33.6014C24.6537 32.3334 24.829 32.3526 22.3947 33.0442C20.4474 33.6206 16.9032 33.659 14.8974 33.1595C4.69317 30.5659 -0.155781 19.327 5.10211 10.4703C6.13422 8.72207 8.84106 6.05163 10.6132 5.0334C13.69 3.26591 17.4484 2.53586 20.8369 3.09301Z" fill="#FBC033"/>
<path d="M13.8068 12.5836C13.1837 12.9102 12.7552 13.8516 12.9305 14.5048C13.4173 16.3683 16.3579 16.0609 16.3579 14.1397C16.3579 12.8333 14.9168 11.9496 13.8068 12.5836Z" fill="#FBC033"/>
<path d="M21.6937 12.4877C20.019 13.1601 20.4863 15.7537 22.2779 15.7537C23.2321 15.7537 23.5437 15.6 23.8747 14.9468C24.3226 14.0822 24.089 13.1409 23.31 12.6798C22.6284 12.2571 22.3363 12.2379 21.6937 12.4877Z" fill="#FBC033"/>
<path d="M7.61424 19.7112C7.1274 20.326 7.1274 20.326 7.55582 21.4787C8.76319 24.6294 12.1127 27.4536 15.6763 28.3373C17.1563 28.7023 19.8437 28.7023 21.3237 28.3373C24.9653 27.4344 28.4316 24.4373 29.5221 21.2482C29.8337 20.3644 29.8337 20.3068 29.4637 19.8265C29.2495 19.5383 28.8795 19.2885 28.6263 19.2501C27.6527 19.0964 27.3216 19.3654 26.5816 20.8255C25.2769 23.4383 22.7842 25.2634 19.8437 25.7437C16.0463 26.3777 12.0542 24.2452 10.3211 20.6718C10.0095 19.9994 9.60056 19.3846 9.42529 19.327C8.72424 19.058 8.00371 19.2117 7.61424 19.7112Z" fill="#FBC033"/>
</svg>
