<svg width="64" height="64" viewBox="0 0 64 64" fill="none" xmlns="http://www.w3.org/2000/svg">
<g clip-path="url(#clip0_112_2)">
<path d="M32 64C49.6731 64 64 49.6731 64 32C64 14.3269 49.6731 0 32 0C14.3269 0 0 14.3269 0 32C0 49.6731 14.3269 64 32 64Z" fill="#EB5160" fill-opacity="0.15"/>
<g clip-path="url(#clip1_112_2)">
<path d="M30.4942 12.2112C28.43 12.4226 26.8721 12.8644 24.769 13.825C22.6269 14.824 21.5947 15.4965 19.92 17.0334C18.1674 18.6472 17.0184 20.2418 15.9474 22.4703C14.8374 24.795 14.4284 26.1974 14.2142 28.5029C13.7079 34.0167 15.5774 39.127 19.5305 43.0462C21.8479 45.3132 24.4963 46.8502 27.7484 47.7723C29.0921 48.1566 29.6958 48.2142 32.5974 48.195C35.3237 48.1758 36.1221 48.1181 37.1737 47.7915L38.4395 47.4073L42.0226 49.2132C45.7032 51.0575 45.9953 51.1344 46.7742 50.462C47.2416 50.0585 47.2026 49.4438 46.4626 45.9088L45.82 42.8349L46.8521 41.5861C50.3769 37.3211 51.7595 30.9236 50.299 25.5442C49.9095 24.1226 48.5269 21.1639 47.6895 19.9728C43.9116 14.5551 37.1542 11.5004 30.4942 12.2112ZM34.8369 15.093C36.6869 15.3812 38.829 16.1304 40.3869 17.0334C42.159 18.0516 44.8658 20.7221 45.8979 22.4703C49.3253 28.2531 48.5658 35.5344 43.9895 40.5103C43.3469 41.2019 42.8211 41.9511 42.8211 42.1433C42.8211 42.3354 42.9963 43.3536 43.2105 44.3718C43.4247 45.3901 43.6 46.3506 43.6 46.5043C43.6 46.6965 42.8211 46.3891 41.2242 45.6014C38.6537 44.3334 38.829 44.3526 36.3947 45.0442C34.4474 45.6206 30.9032 45.659 28.8974 45.1595C18.6932 42.5659 13.8442 31.327 19.1021 22.4703C20.1342 20.7221 22.8411 18.0516 24.6132 17.0334C27.69 15.2659 31.4484 14.5359 34.8369 15.093Z" fill="#EB5160"/>
<path d="M27.8068 24.5836C27.1837 24.9102 26.7552 25.8516 26.9305 26.5048C27.4173 28.3683 30.3579 28.0609 30.3579 26.1397C30.3579 24.8333 28.9168 23.9496 27.8068 24.5836Z" fill="#EB5160"/>
<path d="M35.6937 24.4877C34.019 25.1601 34.4863 27.7537 36.2779 27.7537C37.2321 27.7537 37.5437 27.6 37.8747 26.9468C38.3226 26.0822 38.089 25.1409 37.31 24.6798C36.6284 24.2571 36.3363 24.2379 35.6937 24.4877Z" fill="#EB5160"/>
<path d="M21.6142 31.7112C21.1274 32.326 21.1274 32.326 21.5558 33.4787C22.7632 36.6294 26.1127 39.4536 29.6763 40.3373C31.1563 40.7023 33.8437 40.7023 35.3237 40.3373C38.9653 39.4344 42.4316 36.4373 43.5221 33.2482C43.8337 32.3644 43.8337 32.3068 43.4637 31.8265C43.2495 31.5383 42.8795 31.2885 42.6263 31.2501C41.6527 31.0964 41.3216 31.3654 40.5816 32.8255C39.2769 35.4383 36.7842 37.2634 33.8437 37.7437C30.0463 38.3777 26.0542 36.2452 24.3211 32.6718C24.0095 31.9994 23.6006 31.3846 23.4253 31.327C22.7242 31.058 22.0037 31.2117 21.6142 31.7112Z" fill="#EB5160"/>
</g>
</g>
<defs>
<clipPath id="clip0_112_2">
<rect width="64" height="64" fill="white"/>
</clipPath>
<clipPath id="clip1_112_2">
<rect width="37" height="39" fill="white" transform="translate(14 12)"/>
</clipPath>
</defs>
</svg>
